/* XPM */
static char *slimeman[] = {
/* columns rows colors chars-per-pixel */
"32 32 5 1 ",
"  c None",
". c #82A368",
"X c #00FF8C",
"o c #14605D",
"O c white",
/* pixels */
"                                ",
"                                ",
"             ...                ",
"            .X...               ",
"           .X.....              ",
"           .......              ",
"           ..ooo..              ",
"           .ooooo.              ",
"           .ooooo.              ",
"         ...oooooo..            ",
"        ..oooooooo....          ",
"        .oooooooooooo..         ",
"        .oooooooooooo..         ",
"       ..ooooooooooooo..        ",
"      ..ooooooooooooooo..       ",
"      .ooo..ooooooo.ooo..       ",
"      .oo. .ooooooo..ooo.       ",
"     .oo.  .ooooooo. .oo..      ",
"     .oo.  .ooooooo.  .oo.      ",
"     .oo.  .oooooooo. .oo.      ",
"     ....  .oooooooo. .oo.      ",
"      . . .oooo.oooo. .oo.      ",
"      .   .ooo...ooo.  ...      ",
"          .ooo.  .ooo. . .      ",
"          .ooo.  .ooo.   .      ",
"          .oo.    .ooo.         ",
"          .oo.     .oo.         ",
"         .ooo.     .oo..        ",
"        .oooo.     .ooo.        ",
"        ......     .ooo..       ",
"                   ......       ",
"                                "
};
