/* XPM */
static char *cat_down[] = {
/* columns rows colors chars-per-pixel */
"32 32 143 2 ",
"   c None",
".  c #191E10",
"X  c #1D2412",
"o  c #1E2A14",
"O  c #202514",
"+  c #232B16",
"@  c #282B1A",
"#  c #263118",
"$  c #2D331D",
"%  c #2C391E",
"&  c #31301D",
"*  c #31391F",
"=  c #392D20",
"-  c #343722",
";  c #353B22",
":  c #3A3D24",
">  c #3F3A32",
",  c #422824",
"<  c #522E2B",
"1  c #4B3C22",
"2  c #5B312F",
"3  c #413F37",
"4  c #573331",
"5  c #623238",
"6  c #364023",
"7  c #3B4126",
"8  c #3E4429",
"9  c #404529",
"0  c #49472C",
"q  c #454B2C",
"w  c #494E2E",
"e  c #45502E",
"r  c #4A502F",
"t  c #4A4D31",
"y  c #48413C",
"u  c #4B483B",
"i  c #504935",
"p  c #4D5332",
"a  c #4A5834",
"s  c #4D543B",
"d  c #505734",
"f  c #525936",
"g  c #575439",
"h  c #535D3A",
"j  c #61492B",
"k  c #7C502F",
"l  c #6E403F",
"z  c #6C5431",
"x  c #57643D",
"c  c #59653E",
"v  c #63663F",
"b  c #72673F",
"n  c #554C46",
"m  c #635C44",
"M  c #6B5C41",
"N  c #625F4B",
"B  c #695E59",
"V  c #5D6640",
"C  c #5C6E43",
"Z  c #666044",
"A  c #696146",
"S  c #67664D",
"D  c #6E614D",
"F  c #66684A",
"G  c #71664C",
"H  c #796B4F",
"J  c #607447",
"K  c #617548",
"L  c #62794A",
"P  c #74695F",
"I  c #7B7852",
"U  c #7E775E",
"Y  c #90424D",
"T  c #896E42",
"R  c #816A4F",
"E  c #947346",
"W  c #906C52",
"Q  c #827457",
"!  c #897057",
"~  c #817C5F",
"^  c #A57642",
"/  c #A97444",
"(  c #A07946",
")  c #A5784D",
"_  c #B37B45",
"`  c #867D62",
"'  c #857D6A",
"]  c #758143",
"[  c #798F56",
"{  c #B8814B",
"}  c #AF8952",
"|  c #87836F",
" . c #958563",
".. c #9B8C6B",
"X. c #8C9D63",
"o. c #8F8671",
"O. c #9B8F7D",
"+. c #9F9271",
"@. c #9B907D",
"#. c #AB8E63",
"$. c #A59672",
"%. c #A29A77",
"&. c #AB9974",
"*. c #AB9D7A",
"=. c #8EA269",
"-. c #BBA869",
";. c #A5AF75",
":. c #ACA17E",
">. c #A4B076",
",. c #C28E52",
"<. c #C3935A",
"1. c #C8A370",
"2. c #D1A877",
"3. c #A6A385",
"4. c #ADA483",
"5. c #B2A480",
"6. c #BBAC85",
"7. c #B5AB8C",
"8. c #BAB693",
"9. c #C7B285",
"0. c #C5B68D",
"q. c #CDBA8B",
"w. c #D6B681",
"e. c #C7BB92",
"r. c #CABD95",
"t. c #CEC39A",
"y. c #C9CE98",
"u. c #D0C196",
"i. c #D1C59B",
"p. c #DAC99B",
"a. c #D1D29D",
"s. c #D2C7A3",
"d. c #DCCDA2",
"f. c #DED1A6",
"g. c #DDD6AE",
"h. c #E1CFA2",
"j. c #E1D3A6",
"k. c #E2D6AA",
"l. c #E6DCAE",
"z. c #E8DCAF",
"x. c #E7DCB0",
"c. c #EADFB2",
"v. c #EDE1B4",
/* pixels */
"                                                                ",
"                                                                ",
"                  q J                       J q                 ",
"                  q c L                   L c q                 ",
"                + w d C L               L C d w +               ",
"                + r p h K K J J J J J K K h p r +               ",
"                + w w f x f d d d d d f x f p r +               ",
"                o ; a d p p p p p p p p p p e 8 +               ",
"                X 6 f p p a h h V x h f p p h % X               ",
"                O 8 p d v I m m  .Q u s h d d 8 O               ",
"                ; p p b ) #. ...0...D y 3 s p p ;               ",
"              - w p f T / } q.f.z.f.t.' n F p p w -             ",
"            o 7 p t z { ( ] X.l.l.l.=.[ 8.e.g w p 7 o           ",
"              o $ ; 1 ^ ,.-.;.a.g.a.>.y.v.0.t ; $ o             ",
"                  X X 1 #.p.v.k.7.k.v.f.6.i X X                 ",
"                          S ` ` ` ` ~ S                         ",
"                          O < 5 , 5 < O                         ",
"                        o = Y l R l Y = o       x.              ",
"                      $ 6 & 4 ! 6.W 2 & 6 $     e.k.            ",
"                      8 p 7 H u.l.2.k : p 8     6.              ",
"                    $ p q m u.l.j.<._ j w p - G G               ",
"                    ; p q %.d.z.f.w.<.E q p : i                 ",
"                    : p t r.*.g.5.g.&.0.t p : .                 ",
"                  # q p 0 9.:.3.N 3.:.i.t p q +                 ",
"                : w w q j 1.f.+.G +.j.f.m q w q $               ",
"            $ 9 w p p q M j.z.k.j.f.k.j.A q p p w 9 $           ",
"          : t w p r w q m f.l.c.s.O.7.j.Z w w r p w w :         ",
"          @ - * w 6 w q 7 t.z.i.o.B @.r.7 q w 6 w * - @         ",
"              X + + # # $ $.u.G   > P ..$ # # + + X             ",
"                    . .   ` 4.      | U   . .                   ",
"                                                                ",
"                                                                "
};
