/* XPM */
static char *cat_left[] = {
/* columns rows colors chars-per-pixel */
"32 32 190 2 ",
"   c None",
".  c #171D0F",
"X  c #181E10",
"o  c #191E10",
"O  c #191F10",
"+  c #1A2011",
"@  c #1B2011",
"#  c #1C2212",
"$  c #1C2312",
"%  c #1D2412",
"&  c #1E2713",
"*  c #1E2714",
"=  c #1E2813",
"-  c #202714",
";  c #202815",
":  c #202B15",
">  c #222916",
",  c #232916",
"<  c #222A16",
"1  c #222C16",
"2  c #222E16",
"3  c #232F16",
"4  c #292D19",
"5  c #2F2B1C",
"6  c #2A2D1C",
"7  c #33221E",
"8  c #233117",
"9  c #243217",
"0  c #263018",
"q  c #263318",
"w  c #2B311B",
"e  c #29331A",
"r  c #29341A",
"t  c #2A351B",
"y  c #2A361B",
"u  c #2C311C",
"i  c #2B341C",
"p  c #2D351D",
"a  c #2E371E",
"s  c #38321F",
"d  c #31381F",
"f  c #30391F",
"g  c #313A1F",
"h  c #352E22",
"j  c #383727",
"k  c #313A21",
"l  c #323B20",
"z  c #373B23",
"x  c #313C20",
"c  c #323D20",
"v  c #353D22",
"b  c #363E22",
"n  c #393E24",
"m  c #383F24",
"M  c #393D26",
"N  c #3F3A2B",
"B  c #432927",
"V  c #583935",
"C  c #5E3C37",
"Z  c #364023",
"A  c #384024",
"S  c #394224",
"D  c #394225",
"F  c #3D4227",
"G  c #3B4425",
"H  c #3C4527",
"J  c #3D4527",
"K  c #3F4429",
"L  c #3E4628",
"P  c #3F4729",
"I  c #41462C",
"U  c #41482A",
"Y  c #42492A",
"T  c #414B2B",
"R  c #444B2B",
"E  c #414B2C",
"W  c #454A2C",
"Q  c #444B2C",
"!  c #454B2C",
"~  c #464B2D",
"^  c #454C2C",
"/  c #464C2D",
"(  c #474C2D",
")  c #464D2D",
"_  c #474C2E",
"`  c #474D2E",
"'  c #464E2E",
"]  c #484E2E",
"[  c #494E2E",
"{  c #494F2E",
"}  c #494F2F",
"|  c #4A4F2F",
" . c #47512F",
".. c #4A502F",
"X. c #4B4D33",
"o. c #4A5030",
"O. c #4B5030",
"+. c #4C5131",
"@. c #4C5231",
"#. c #4D5231",
"$. c #4D5331",
"%. c #4E5231",
"&. c #4D5232",
"*. c #4E5232",
"=. c #4E5332",
"-. c #4F5432",
";. c #4F5433",
":. c #4F5533",
">. c #4A5534",
",. c #505534",
"<. c #505835",
"1. c #515835",
"2. c #5A573C",
"3. c #525A38",
"4. c #535D38",
"5. c #54633C",
"6. c #56633C",
"7. c #57643D",
"8. c #58653E",
"9. c #58663E",
"0. c #58663F",
"q. c #575F42",
"w. c #615940",
"e. c #665E44",
"r. c #5B6B42",
"t. c #5B6D43",
"y. c #5E7145",
"u. c #6A6247",
"i. c #616842",
"p. c #64684E",
"a. c #6A6E48",
"s. c #766D4E",
"d. c #796D4F",
"f. c #607548",
"g. c #70685A",
"h. c #7B7056",
"j. c #7B7267",
"k. c #815C3A",
"l. c #823F49",
"z. c #87795B",
"x. c #877B5D",
"c. c #977E5C",
"v. c #857E65",
"b. c #8F7D62",
"n. c #81835A",
"m. c #B88B5A",
"M. c #858866",
"N. c #888F67",
"B. c #9A8D6D",
"V. c #8D8370",
"C. c #AD9067",
"Z. c #A4936E",
"A. c #A19775",
"S. c #A0957A",
"D. c #A49A78",
"F. c #9FA474",
"G. c #9CB576",
"H. c #B3A57F",
"J. c #ACA280",
"K. c #BCAE87",
"L. c #BEAF89",
"P. c #B8B487",
"I. c #C0B189",
"U. c #C0B391",
"Y. c #C1B893",
"T. c #C7BB94",
"R. c #CABD95",
"E. c #CBBD95",
"W. c #CFBF95",
"Q. c #CEC398",
"!. c #D0C096",
"~. c #D2C399",
"^. c #D0C59C",
"/. c #DBCCA0",
"(. c #DACFA6",
"). c #D8D3AE",
"_. c #E1D4A7",
"`. c #E1D4A8",
"'. c #E1D8AB",
"]. c #E1D8AF",
"[. c #E6DAAD",
"{. c #E8DBAE",
"}. c #E9DEB2",
"|. c #EAE2B7",
" X c #ECE2B5",
".X c #E9E5B7",
"XX c #E7E4B9",
"oX c #ECE4B8",
"OX c #EEE6BA",
"+X c #F8F7CD",
/* pixels */
"                                                                ",
"                                                                ",
"                                                                ",
"                                      t.9.7.>.                  ",
"                                  t.9.4.,.} u                   ",
"                              f.6.4.:.*.} g +                   ",
"                        y.9.9.6.Y W } A y *                     ",
"                      t.<.*.*.*.*.o.Z 8 2 +                     ",
"                      n.i.<.*.*.*.:.o.A q                       ",
"                      T.A.p.3.*.*.*.*.:.F                       ",
"                    ^.J.U.j.q.:.*.*.*.*.} >                     ",
"                      P.N.V.M. .*.*.*.*.*.g                     ",
"                    (.F.G.XXQ.a.( *.*.*.:.} i                   ",
"                    Y.'..X X!.s.E *.*.*.} x 2 #                 ",
"                    ~.[.{.!.d.n ..:.o.L y > &                   ",
"                      W.H.w.w l A v y 2 #                       ",
"                        C 7 # = & # o                           ",
"                        l.B - q 9 2                             ",
"                        V h > G x y *                           ",
"                        C.k.4 ( L R g                           ",
"                        `.m.s ( W o.*.z                         ",
"                        |.c.5 ( } *.:.W                         ",
"                      ].K.h.j ( *.*.*.*.L                       ",
"                      B.x.R.e.W :.*.*.*.*.L         +X          ",
"                        z./.u.W *.*.*.*.} *.L     OX}.OX        ",
"                          R.2.} ( } ( *...( *.n D.I._.          ",
"                        b.S.X.*.Y } Y } :.Y v 6 N               ",
"                          g.I :.( J J g n a #                   ",
"                        ).v.l v a > > + o                       ",
"                        L.Z.  .                                 ",
"                                                                ",
"                                                                "
};
