/* XPM */
static char *cat_up[] = {
/* columns rows colors chars-per-pixel */
"32 32 170 2 ",
"   c None",
".  c #191F10",
"X  c #1A2011",
"o  c #1C2312",
"O  c #1D2412",
"+  c #1D2512",
"@  c #1D2513",
"#  c #1E2713",
"$  c #1F2514",
"%  c #1E2714",
"&  c #1F2714",
"*  c #1E2814",
"=  c #1F2814",
"-  c #1F2A14",
";  c #202415",
":  c #202715",
">  c #222417",
",  c #212915",
"<  c #202B15",
"1  c #232917",
"2  c #232A16",
"3  c #222B16",
"4  c #232B16",
"5  c #232A17",
"6  c #232B17",
"7  c #242817",
"8  c #242B17",
"9  c #252B17",
"0  c #212D15",
"q  c #222D16",
"w  c #232D17",
"e  c #222E16",
"r  c #222F16",
"t  c #232F16",
"y  c #242E17",
"u  c #26271A",
"i  c #272B19",
"p  c #252C18",
"a  c #252D18",
"s  c #2B2B1B",
"d  c #2A291C",
"f  c #2D2C1E",
"g  c #223016",
"h  c #233016",
"j  c #233116",
"k  c #233117",
"l  c #243117",
"z  c #253118",
"x  c #263019",
"c  c #263119",
"v  c #263218",
"b  c #263318",
"n  c #28331A",
"m  c #283419",
"M  c #28351A",
"N  c #2A361B",
"B  c #2B301C",
"V  c #2F321E",
"C  c #2F331E",
"Z  c #2F341D",
"A  c #2E351E",
"S  c #2E361E",
"D  c #2F361E",
"F  c #2F391E",
"G  c #31341E",
"H  c #303B1F",
"J  c #313B1F",
"K  c #313C1F",
"L  c #323820",
"P  c #353A22",
"I  c #363B23",
"U  c #353D22",
"Y  c #343E22",
"T  c #363E22",
"R  c #373E23",
"E  c #363F23",
"W  c #373F23",
"Q  c #373D24",
"!  c #383C24",
"~  c #3C3728",
"^  c #3D3928",
"/  c #433E2C",
"(  c #4B382D",
")  c #374023",
"_  c #394124",
"`  c #394224",
"'  c #394225",
"]  c #3A4225",
"[  c #3B4326",
"{  c #3C4127",
"}  c #3D4627",
"|  c #3F4429",
" . c #3F4628",
".. c #3F4728",
"X. c #404529",
"o. c #404729",
"O. c #414829",
"+. c #41492A",
"@. c #42492A",
"#. c #434A2B",
"$. c #444B2B",
"%. c #414B2D",
"&. c #454A2C",
"*. c #454B2C",
"=. c #454C2C",
"-. c #464C2D",
";. c #464D2D",
":. c #474D2D",
">. c #484D2E",
",. c #484E2E",
"<. c #484F2E",
"1. c #494F2E",
"2. c #494F2F",
"3. c #4A4F2F",
"4. c #49502F",
"5. c #4A502F",
"6. c #484130",
"7. c #504E33",
"8. c #544B37",
"9. c #4A5030",
"0. c #4B5030",
"q. c #4B5130",
"w. c #4C5130",
"e. c #4C5131",
"r. c #4C5231",
"t. c #4D5231",
"y. c #4D5232",
"u. c #4E5332",
"i. c #4F5332",
"p. c #4F5432",
"a. c #4F5433",
"s. c #505634",
"d. c #505734",
"f. c #505735",
"g. c #525634",
"h. c #5C523C",
"j. c #5A5D3B",
"k. c #5D603E",
"l. c #5E613F",
"z. c #58663E",
"x. c #59663E",
"c. c #704043",
"v. c #754145",
"b. c #5B6C42",
"n. c #5F7246",
"m. c #606442",
"M. c #606443",
"N. c #706349",
"B. c #607347",
"V. c #607447",
"C. c #62794B",
"Z. c #72704D",
"A. c #7F7350",
"S. c #837254",
"D. c #857555",
"F. c #917D5C",
"G. c #927F5D",
"H. c #8D815D",
"J. c #9A8562",
"K. c #95946F",
"L. c #98946D",
"P. c #989771",
"I. c #9B9770",
"U. c #969874",
"Y. c #9B9871",
"T. c #B5A57E",
"R. c #D8CEA2",
"E. c #D9CEA2",
"W. c #DFD2A6",
"Q. c #EEE4B7",
/* pixels */
"                                                                ",
"                                                                ",
"                  %.V.                      V.%.                ",
"                  &.x.C.                  C.x.&.                ",
"                1 2.f.b.C.              C.b.f.2.1               ",
"                1 2.u.f.x.n.V.B.n.n.V.n.x.f.u.2.1               ",
"                1 2.u.5.u.f.f.f.f.f.f.f.u.0.u.0.7               ",
"                & H ` ` u.u.u.u.u.u.u.u.u.$.U ) 1               ",
"                o z ..u.u.u.u.u.u.u.u.u.u.u.X.z #               ",
"                ; { p.u.u.u.u.u.u.u.u.u.u.u.u...a               ",
"                P u.u.u.u.u.u.u.u.u.u.u.u.u.u.u.!               ",
"              # F 0.p.u.u.u.u.u.u.u.u.u.u.u.u.2.U >             ",
"            o r l H @.2.u.p.p.p.u.u.u.u.2.@.) M l r o           ",
"              # 1 r z M K ` ` ` ` ` ` H M z h h 1 #             ",
"                  # # & r r h h h h h r r - # #                 ",
"                          & s s s s s &                         ",
"                          7 ( c.v.c.( 7                         ",
"                        - h l A G C l h -                       ",
"                      B ` K M h h h M M ) B                     ",
"                      ..s.u.2.` ` ` -.2.u...                    ",
"                    C 0.u.u.u.p.p.u.M.U.M.2.C                   ",
"                    P p.u.u.u.u.u.0.I.Q.K.u.P                   ",
"                    U p.u.u.u.u.u.0.I.W.Z.u.U                   ",
"                  z @.u.u.u.u.u.u.0.Y.R.l.u.@.y                 ",
"                Q 2.u.u.u.u.u.u.u.0.L.R.l.-.u.@.A               ",
"            C X.u.u.u.u.u.-.u.u.u.u.H.T.j.0.u.u.u...C           ",
"          ! &.2.u.p.-.-.0.-.p.0.A 7.J.A.f.u.-.u.-.p.0.!         ",
"          7 a U 2.@.-.2.U } ` A ^ F.D.L U 2.@.@...U P i         ",
"              X 1 r z z 1 1 > / S.F.N.d a n z r 1 X             ",
"                    .   f 8.6.~   6.h.6.u   .                   ",
"                                                                ",
"                                                                "
};
