/* XPM */
static char *cat_right[] = {
/* columns rows colors chars-per-pixel */
"32 32 193 2 ",
"   c None",
".  c #171D0F",
"X  c #181E10",
"o  c #191E10",
"O  c #191F10",
"+  c #1A2011",
"@  c #1B2011",
"#  c #1C2212",
"$  c #1C2312",
"%  c #1D2412",
"&  c #1E2713",
"*  c #1E2714",
"=  c #1E2813",
"-  c #202714",
";  c #202815",
":  c #202B15",
">  c #222916",
",  c #232916",
"<  c #222A16",
"1  c #222C16",
"2  c #222E16",
"3  c #232F16",
"4  c #2A2F1B",
"5  c #2A2D1C",
"6  c #2E2D1F",
"7  c #33221E",
"8  c #233117",
"9  c #243217",
"0  c #263018",
"q  c #263318",
"w  c #29331A",
"e  c #29341A",
"r  c #2A351B",
"t  c #2A361B",
"y  c #2B311C",
"u  c #2C311C",
"i  c #2B341C",
"p  c #2D351D",
"a  c #2E371E",
"s  c #31381F",
"d  c #30391F",
"f  c #313A1F",
"g  c #332E22",
"h  c #383725",
"j  c #383727",
"k  c #323B21",
"l  c #373B23",
"z  c #313C20",
"x  c #323D20",
"c  c #353D22",
"v  c #363E22",
"b  c #373F24",
"n  c #383A20",
"m  c #383F24",
"M  c #393D26",
"N  c #3F3A2B",
"B  c #432927",
"V  c #583935",
"C  c #5E3C37",
"Z  c #364023",
"A  c #384024",
"S  c #394224",
"D  c #394225",
"F  c #3D4227",
"G  c #3B4425",
"H  c #3C4527",
"J  c #3D4527",
"K  c #3F4429",
"L  c #3E4628",
"P  c #3F4729",
"I  c #41482A",
"U  c #42492A",
"Y  c #414B2B",
"T  c #434B2B",
"R  c #444B2B",
"E  c #454A2C",
"W  c #444B2C",
"Q  c #454B2C",
"!  c #454B2D",
"~  c #464B2D",
"^  c #464A2E",
"/  c #454C2C",
"(  c #464C2D",
")  c #474C2D",
"_  c #464D2D",
"`  c #474D2D",
"'  c #474C2E",
"]  c #464E2E",
"[  c #484E2E",
"{  c #494E2E",
"}  c #494F2E",
"|  c #494F2F",
" . c #4A4F2F",
".. c #5A4C2F",
"X. c #4A502F",
"o. c #494C33",
"O. c #475130",
"+. c #4A5030",
"@. c #4B5030",
"#. c #4C5131",
"$. c #4C5231",
"%. c #4D5231",
"&. c #4D5331",
"*. c #4E5231",
"=. c #4D5232",
"-. c #4E5232",
";. c #4E5332",
":. c #4F5432",
">. c #4E5433",
",. c #4F5433",
"<. c #4F5533",
"1. c #4A5534",
"2. c #4F5734",
"3. c #505534",
"4. c #505835",
"5. c #535D38",
"6. c #575F3B",
"7. c #674D2E",
"8. c #675F37",
"9. c #775632",
"0. c #7D5E3D",
"q. c #54633C",
"w. c #56633C",
"e. c #57643D",
"r. c #58653E",
"t. c #58663E",
"y. c #58663F",
"u. c #615A41",
"i. c #675C42",
"p. c #5B6B42",
"a. c #5B6D43",
"s. c #5E7145",
"d. c #606842",
"f. c #607548",
"g. c #797146",
"h. c #7B7055",
"j. c #823F49",
"k. c #927B48",
"l. c #807356",
"z. c #847456",
"x. c #877B5E",
"c. c #B27D47",
"v. c #8B924E",
"b. c #81835A",
"n. c #B2824B",
"m. c #AC8452",
"M. c #BC8F57",
"N. c #958868",
"B. c #9A8D6D",
"V. c #92946A",
"C. c #A1906D",
"Z. c #A49A78",
"A. c #AF9F7B",
"S. c #B19D77",
"D. c #9EA373",
"F. c #9FA474",
"G. c #AEA07A",
"H. c #ABA17F",
"J. c #B3A57F",
"K. c #C49D6A",
"L. c #CEA66E",
"P. c #C6AD7F",
"I. c #B7AA83",
"U. c #B8AD84",
"Y. c #BCAE87",
"T. c #BEAF89",
"R. c #B7B486",
"E. c #C0B189",
"W. c #D8BF8D",
"Q. c #C3B790",
"!. c #C1B993",
"~. c #C6BA94",
"^. c #C7BC94",
"/. c #CABB91",
"(. c #CEBB90",
"). c #CFBF95",
"_. c #DCC390",
"`. c #D2C399",
"'. c #D0C59C",
"]. c #D8CAA0",
"[. c #DACFA6",
"{. c #E1D4A7",
"}. c #E0D5A7",
"|. c #E1D8AF",
" X c #E6DAAD",
".X c #E2DCB4",
"XX c #E8DDB0",
"oX c #E9DEB2",
"OX c #E6E0B7",
"+X c #EBE3B7",
"@X c #ECE4B8",
"#X c #EEE6BA",
"$X c #F8F7CD",
/* pixels */
"                                                                ",
"                                                                ",
"                                                                ",
"                  1.e.r.p.                                      ",
"                  u [ 3.5.r.p.                                  ",
"                  @ d [ ;.<.5.q.f.                              ",
"                    * r S [ Q Y q.r.r.s.                        ",
"                    @ 2 8 Z @.;.;.;.;.4.a.                      ",
"                      0 S X.;.;.;.;.2.d.b.                      ",
"                      F <.;.;.;.;.6.V.U.~.                      ",
"                    , [ ;.;.;.;.<.g.W.].H.'.                    ",
"                    d ;.;.;.;.;.O.k.m.D.R.                      ",
"                  i [ ;.;.;.;.] 8.n.M.v.F.[.                    ",
"                $ 2 x [ ;.;.;.Y 9.c.L._.{.!.                    ",
"                  % , r P @.<.@.n 0.(.oX X`.                    ",
"                      $ 2 w v m k i u.J.).                      ",
"                          X $ % = $ 7 C                         ",
"                            2 9 0 - B j.                        ",
"                          * r x G , g V                         ",
"                          d R P ] 4 h.A.                        ",
"                        l ;.X.Q ] h Q.OX                        ",
"                        Q ;.;.[ ] 6 N.+X                        ",
"                      P ;.;.;.;.] h h.Y.|.                      ",
"          $X        K ;.;.;.;.;.Q i./.x.B.                      ",
"        @XoX@X    P ;.[ ;.;.;.;.Q 7.K.z.                        ",
"          {.E.Z.m ;.] X.;.] [ ] [ ..P.                          ",
"              N 5 v Y <.[ Y [ Y ;.o.~.S.                        ",
"                  $ p m d H H ] ;.Q I.                          ",
"                      X X , , p v b G..X                        ",
"                                .   C.T.                        ",
"                                                                ",
"                                                                "
};
