/* XPM */
static char *result[] = {
/* columns rows colors chars-per-pixel */
"32 32 7 1 ",
"  c #323E4F",
". c #385660",
"X c #3D6E70",
"o c #3CA370",
"O c #8FDE5D",
"+ c #CFFF70",
"@ c None",
/* pixels */
"@@@@@@@@@@@@@@@@@@@@@@@@@@@@@@@@",
"@@@@@@@@@@@@@@@oooo@@@@@@@@@@@@@",
"@@@@@@@@@@@@@@OoXXoo@@@@@@@@@@@@",
"@@@@@@@@@@@@@@oXXXXo@@@@@@@@@@@@",
"@@@@@@@@@@@@@OXX..XXo@@@@@@@@@@@",
"@@@@@@@@O+@@@oX.  .Xo@@@@@@@@@@@",
"@@@@@@@@++@@OoX.  .Xoo@@@@@@@@@@",
"@@@@@@@@@@@@OoX    OOO@@@@@@@@@@",
"@@@@@@@@@@@@oo.  OOOOO@@@@@@@@@@",
"@@@@@@@@@@O@oX. OOO+++@@@@@@@@@@",
"@@@@@@@@@@@oo. OO++++++@@@@@@@@@",
"@@@@@@@@@@@oX. O+++++++@@@@@@@@@",
"@@@@@@@@@@@oX.O++OOO+++@@@@@@@@@",
"@@@@@@@@@@@oX.O+OOOOOO+@@@@@@@@@",
"@@@@@@@@@@@oX.O+O   OO+@@@@@@@@@",
"@@@@@@@@@@@oX.OO    .O+@@@@@@@@@",
"@@@@@@@@@@@Oo.OO oo .OO@@@@@@@@@",
"@@@@@@@@@@@Oo.OO Ooo.OO@@@@@@@@@",
"@@@@@@@@@@@OOo OOOoo.O+@@@@@@@@@",
"@@@@@@@@@@@OOooo  oo.O+@@@@@@@@@",
"@@@@@@@@@@@oOOOoooOo.OO@@@@@@@@@",
"@@@@@@@@@@@OooOOOoo XOO@@@@@@@@@",
"@@@@@@@@@@@@oXoooo .OOO@@@@@@@@@",
"@@@@@@@@@@@@oX.    .OOO@@@@@@@@@",
"@@@@@@@@@@@@oXX    XO+@@@@@@@@@@",
"@@@@@@@@@@@@OoX.  .XO+@@@@@@@@@@",
"@@@@@@@@@@@@@oXX..XXOOo@@@@@@@@@",
"@@@@@@@@@@@@@OoXXXXOO@o@@@@@@@@@",
"@@@@@@@@@@@@@@oXXXXO@@@@@@@@@@@@",
"@@@@@@@@@@@@@@OoXXOO@@@@@@@@@@@@",
"@@@@@@@@@@@@@@@OOOO@@@@@@@@@@@@@",
"@@@@@@@@@@@@@@@@@@@@@@@@@@@@@@@@"
};
