/* XPM */
static char *item[] = {
/* columns rows colors chars-per-pixel */
"32 32 13 1 ",
"  c #CCAC68",
". c #2C5B6D",
"X c #38002C",
"o c #FFDBA5",
"O c #CCE2E1",
"+ c #8BABBF",
"@ c #37446E",
"# c #566A89",
"$ c #46C657",
"% c #222A5C",
"& c black",
"* c #158968",
"= c None",
/* pixels */
"================================",
"===&&&&&&&&&&&&&&&&&&&&&&&&&&===",
"==&.*****$$*$$*$$*$$*$$*****.&==",
"==&*&&***$$*$$*$$*$$*$$***&&*&==",
"==&*&&***++*++*++*++*++***&&*&==",
"==&******++*++*++*++*++******&==",
"==&&&.***%%%%%%%%%%%%%@***.&&&==",
"=====&*+%XX%%%%%%%%%%%%@O*&=====",
"=====&*+%XX%%%%%%%%%%%%@O*&=====",
"=====&**%%##%##%%%#%##%@**&=====",
"==&&&.*+%%##%#%%%%#%%#%@O*.&&&==",
"==&****+%%#%%#%%#%#%#%%@O****&==",
"==&*****%%##%##%%%#%##%@*****&==",
"==&**$$+%%%%%%%%%%%%%%%@O$$$$&==",
"==&**$$+%%########%###%@O$$$$&==",
"==&*****%%%%%%%%%%%%%%%@*****&==",
"==&$$$$+%%##%@#%#%#%%%%@O$$$$&==",
"==&$$$$+%%##%##%#%#%%%%@O$$$$&==",
"==&*****%%#%%#@%@##%%%%@*****&==",
"==&**$$+%%%%%%%%%%%%%%%@O$$**&==",
"==&*$$$+@%%%%%%%%%%%%%%@O$$$*&==",
"==&*$$***@@@@@@@@@@@@@@***$$*&==",
"==&*$$***OO*OO*OO*OO*OO***$$*&==",
"==&*$$***OO*OO*OO*OO*OO***$$*&==",
"==&*$$*.*$$*$$*$$*$$*$$*.*$$*&==",
"==&*  *.*$$*$$*$$*$$*$$*.*oo*&==",
"==&*  *&*  *oo*oo*  *oo*&*oo*&==",
"==&*  *&*  *oo*oo*  *oo*&*oo*&==",
"==&*  *&*  *oo*oo*  *oo*&*oo*&==",
"==&.***&****************&***.&==",
"===&&&&&&&&&&&&&&&&&&&&&&&&&&===",
"================================"
};
