/* XPM */
static char *title[] = {
/* columns rows colors chars-per-pixel */
"47 40 22 1 ",
"  c None",
". c #171A0F",
"X c #3A1F1D",
"o c #243117",
"O c #302D21",
"+ c #3D3734",
"@ c #364922",
"# c #4E5332",
"$ c #6B3840",
"% c #62784A",
"& c #796E67",
"* c #80592D",
"= c #8D4953",
"- c #B34D5C",
"; c #AB7B44",
": c #BD7247",
"> c #84AE56",
", c #9F8965",
"< c #CD9757",
"1 c #E2B179",
"2 c #E6DAAD",
"3 c #FDFFD6",
/* pixels */
"                                               ",
"                                               ",
"                                               ",
"         %                          %          ",
"        .%%                        %%.         ",
"        .#%%                      %%#.         ",
"       .###%%                    %%###.        ",
"       .###%%%                  %%%###.        ",
"       .####%%%                %%%####.        ",
"      .o#####%%%              %%%#####o.       ",
"      .o#####%%%%%%%%%%%%%%%%%%%%#####o.       ",
"      .o######%%%%%%%%%%%%%%%%%%######o.       ",
"      .o######%%##############%%######o.       ",
"      .o###o#%##################%#####o.       ",
"      .oo#o%######################o###o.       ",
"      .ooo%#######################%o#oo.       ",
"      .ooo%########################%ooo.       ",
"       .o%########%%%%%%%%%%#######%oo.        ",
"       ..#######%%++++,,,+++%%######%..        ",
"       .######%%,,,++,,,,,++++%%######.        ",
"      .######%::,,,,,,,,,,,+++++%######.       ",
"      .#####%::,,,2OO2222OO,+++++%#####.       ",
"     .######%**;;<2222222222&&+++%######.      ",
"    .#######%::<<;<2222222222&&+,%#######.     ",
"   .#######::<<OO>@32222223@>OO22,.#######.    ",
"  .oo#####.*;;;;>>@>322223>@>>3322,.#####oo.   ",
"   ..oo###.:<<<<1>@>>2222>>@>32222,.###oo..    ",
"     ..oooo.*;;;<1222233222222222,.oooo..      ",
"       ..ooo.:<<222222OO22222222,.ooo..        ",
"         .....,2222222222222222,.....          ",
"              ...222222222222...               ",
"                 ............                  ",
"                .ooX$$XX$$Xoo.                 ",
"               .ooX-=$XX$=-Xoo.       23       ",
"              .ooX--=X,,X=--Xoo.     2223      ",
"             .oooX-=$X,,X$=-Xooo.     223      ",
"             .oooX$$X,,,,X$$Xooo.     ,22      ",
"            .###ooXX,,22,:XXoo###.    ,22      ",
"            .####o.,,2222::.o####.    ,2,      ",
"           .#####.,,22222<:*.#####.  O22       "
};
