/* XPM */
static char *wall[] = {
/* columns rows colors chars-per-pixel */
"32 32 143 2 ",
"   c #01050C",
".  c #020710",
"X  c #030A14",
"o  c #050E1B",
"O  c #06101E",
"+  c #061324",
"@  c #091525",
"#  c #0E1824",
"$  c #071529",
"%  c #0A1728",
"&  c #08162A",
"*  c #08172A",
"=  c #09172A",
"-  c #08172B",
";  c #081628",
":  c #08172C",
">  c #081729",
",  c #091829",
"<  c #0A1828",
"1  c #0B1828",
"2  c #0A1829",
"3  c #0B1829",
"4  c #0B1929",
"5  c #09182A",
"6  c #08182B",
"7  c #09182B",
"8  c #0A182A",
"9  c #0A192A",
"0  c #0B192A",
"q  c #0A182B",
"w  c #0A192B",
"e  c #0B192B",
"r  c #0C1A2B",
"t  c #08182C",
"y  c #09192C",
"u  c #08182D",
"i  c #09192D",
"p  c #0A192C",
"a  c #0B192C",
"s  c #0A192D",
"d  c #0A1A2C",
"f  c #0A1A2D",
"g  c #0B1A2D",
"h  c #0B1B2D",
"j  c #08192E",
"k  c #09192E",
"l  c #09192F",
"z  c #091A2E",
"x  c #091A2F",
"c  c #0A1A2E",
"v  c #0B1B2E",
"b  c #0A1A2F",
"n  c #0B1B2F",
"m  c #0C1A2C",
"M  c #0B1C2F",
"N  c #0C1C2E",
"B  c #0D1C2E",
"V  c #0C1C2F",
"C  c #0D1D2F",
"Z  c #0E1D2E",
"A  c #0E1D2F",
"S  c #0A192B",
"D  c #101922",
"F  c #091A30",
"G  c #091B30",
"H  c #091B31",
"J  c #0A1B30",
"K  c #0B1B30",
"L  c #0A1B31",
"P  c #0A1B32",
"I  c #0B1C30",
"U  c #0A1C31",
"Y  c #0B1C31",
"T  c #0A1C32",
"R  c #0B1D32",
"E  c #0A1C33",
"W  c #0B1D33",
"Q  c #0C1C30",
"!  c #0C1D30",
"~  c #0E1E30",
"^  c #0E1E31",
"/  c #0C1D32",
"(  c #0C1D33",
")  c #0C1E32",
"_  c #0D1E32",
"`  c #0E1E32",
"'  c #0F1F33",
"]  c #0B1D34",
"[  c #0B1E35",
"{  c #0B1E36",
"}  c #0C1E34",
"|  c #0C1F34",
" . c #0C1E35",
".. c #0C1F35",
"X. c #0D1F35",
"o. c #0E1F34",
"O. c #0C1F36",
"+. c #0D1F36",
"@. c #0C1F37",
"#. c #0B1C31",
"$. c #0E2034",
"%. c #0D2036",
"&. c #0C2037",
"*. c #0D2037",
"=. c #0E2136",
"-. c #0F2136",
";. c #0E2137",
":. c #0C2038",
">. c #0D2038",
",. c #0D2138",
"<. c #0D2139",
"1. c #0E2138",
"2. c #0E2139",
"3. c #0E2239",
"4. c #0D223A",
"5. c #0D223B",
"6. c #0E223B",
"7. c #0E233B",
"8. c #0D233C",
"9. c #0E233C",
"0. c #0F243C",
"q. c #0F243E",
"w. c #0F253F",
"e. c #0E233C",
"r. c #112438",
"t. c #112439",
"y. c #122439",
"u. c #10243B",
"i. c #10243C",
"p. c #11253D",
"a. c #10253E",
"s. c #11263F",
"d. c #13283F",
"f. c #102640",
"g. c #112740",
"h. c #122740",
"j. c #112842",
"k. c #142B46",
"l. c #132C47",
"z. c #152C45",
"x. c #132C49",
"c. c #19314C",
"v. c #173351",
/* pixels */
"X t.=.=.e % j ( r. . .( j %   Z d.Z  .=.(  .=.=.M =.3. . .8.=.+ ",
"t. .j  .; j & j r.I j j j [ @ z.&  .j  .3.; & j 3.j ; I =.& G j ",
"=.& + + + + + + + + % % + + O 3.+ $ $ + + & ; $ + $ $ $ $ $ $ o ",
"e G + $ $ $ $ % % % % % % % o q.$ ; ; ; ; ; ; ; ; e e e ; ; j o ",
"% j + $ $ $ % % % % % % $ ; o 3.& & ; ; ; ; ; ; e e e j e e j X ",
"I : $ $ $ $ $ % $ % % $ $ & X I & $ & & & & & ; ; ; ; e j e e X ",
"3.u $ & & $ $ & & & & & $ & o 3.& & & & & & & & & & & e e & j O ",
"O ; + + O + $ o + + + + + o   O + + o o + + + + + + + + + o + . ",
"O % ; % e O   Z Z + % I ; e e e j + e j % % O   r ( % % e o 1 % ",
"( j j j j =.Z z.j j j j j f. .G G I  .G j j ( % f.; Z m j I ( j ",
"@ @ @ @ $ + ( & + + + $ $ + + + + $ $ + + & + O j + @ @ + + + @ ",
"% % % # % + j j + + $ ; ; ; ; $ + % e ; & & O X I + % % % % @ @ ",
"% % % % % % % =.+ $ $ $ ; ; ; $ + ; ; ; $ $ $ o G % % $ $ % @ @ ",
"% % % % & % %  .+ & & & ; ; ; ; & ; ; & & & e e G + & & $ $ % ; ",
"+ % @ O $ o o ; o o o + + + + + + + + + + + X X e + + + + + + O ",
"% X X % + o + % @ % % o @ % o o . ; ; e j e % + e j e e ; ; e ; ",
" .o l.8.G  .3.j =.s.I ( (  .3.;  .q.j I 3.q.( G I 3.G G j j I I ",
"+ o 3.+ + + + % + + @ + + + + o e I + $ $ + $ % @ + + + + + + + ",
"$ X I % % % % % % % % # % % ; o + [ + ; e e % % % % % % % % % % ",
"; X =.% % % % % @ @ % % % % ; o j j $ ; e ; % % % % % % % 1 % % ",
"$ O f.$ % % % % % % % % % % ; O e [ + % ; % % % % % % % % % % % ",
"$ % 3.+ % % % $ $ $ $ % % % ; O j  .+ & & $ $ $ $ % $ $ % % % $ ",
"O X 3.+ $ + O + + + + + + $ $ . O ; + + + + + $ & + + + + + + + ",
"o . X O % $ O O @ +   o % + O o o % + O % e +   X ; % % O + ; % ",
"( (  . . .x.j. .I  .j v.q.[ =.3.3. .=.s.s.I =.O e f.G s.c.s.( ( ",
"# # % @ + + + + + + % 8.o + + + + + + + + + $ O ; j $ + % @ @ # ",
"D # # # # # @ % % 1 O ( + % % % % % % + + + e X + I @ # % % 1 # ",
"D D D # # # # % % % e I + % % % % % % + % % e X @ Z % 1 # 1 # # ",
"D D D # # # @ @ % + % j + % % % % % @ @ % @ ; X e m # # 1 1 # # ",
"# # # # @ @ @ + % + O j + $ % % % % % % % + $ O @ j @ % 1 # @ # ",
"% % % % % % % $ $ + + I + ; & ; % $ $ $ & $ ; O % j $ % % % % % ",
"% $ % @ $ + + + % X X % + o O $ o o + + o O $   o I % % % % + + "
};
