/* XPM */
static char *_[] = {
/* columns rows colors chars-per-pixel */
"32 32 9 1 ",
"  c None",
". c #8FDE5D",
"X c #3CA370",
"o c #66A667",
"O c #3D6E70",
"+ c #385660",
"@ c #323E4F",
"# c #CFFF70",
"$ c white",
/* pixels */
"                                ",
"               .XXX             ",
"              .XXoXX            ",
"              .XoOoX            ",
"             .Xo++OoX           ",
"             .X+@@+OX           ",
"         .. ..X+@@+OXX          ",
"         .. .Xo+@@++oX          ",
"            .X+@@@@+OX          ",
"            .X+@@@@+OX          ",
"           ..X+@@@@++XX         ",
"           ..X@@@@@++oX .       ",
"           ..X@@@@@@+OX         ",
"         X ..X@@@@....X         ",
"           X.X@@...##..         ",
"           X..X..#####.         ",
"           XX.X.....###         ",
"           XXXXX@X@..##         ",
"           XOX.XXX@@.##         ",
"           XO+XXX@@@.##         ",
"           .o++@@@@+.##         ",
"           .XO+@@@@+.#.         ",
"            XO+@@@@+..          ",
"            XO+@@@@+#.          ",
"            .oO+@@+.#.          ",
"            .XO+@@+...          ",
"            .XoO++O...          ",
"             .XOOO...           ",
"             ..O...#.           ",
"              ....#.            ",
"               .....            ",
"                                "
};
